<svg width="30" height="30" viewBox="0 0 30 30" fill="none" xmlns="http://www.w3.org/2000/svg">
<mask id="mask0_19_658" style="mask-type:luminance" maskUnits="userSpaceOnUse" x="0" y="0" width="30" height="30">
<path d="M0 0H30V30H0V0Z" fill="white"/>
</mask>
<g mask="url(#mask0_19_658)">
<path d="M11.5664 14.4844H17.5594L25.0523 0H19.0594L11.5664 14.4844Z" fill="#006CA2"/>
<path d="M15.3117 7.24219L12.3164 13.0359L13.0664 14.4844H17.5594L18.3094 13.0359L15.3117 7.24219Z" fill="#2F2F2F"/>
<path d="M18.0398 17.9813H12.0445V14.4845H18.0375V17.9813H18.0398ZM18.0398 12.9868H12.0445C11.2172 12.9868 10.5469 13.6571 10.5469 14.4845V17.9813C10.5469 18.8087 11.2172 19.479 12.0445 19.479H18.0375C18.8648 19.479 19.5352 18.8087 19.5352 17.9813V14.4845C19.5356 14.2879 19.4973 14.0931 19.4224 13.9113C19.3474 13.7295 19.2374 13.5643 19.0984 13.4252C18.9595 13.2861 18.7945 13.1757 18.6128 13.1005C18.4312 13.0253 18.2365 12.9866 18.0398 12.9868Z" fill="#CECED2"/>
<path d="M22.5351 22.4766C22.5351 26.6157 19.1812 29.9696 15.0422 29.9696C10.9054 29.9696 7.54919 26.6157 7.54919 22.4766C7.54919 18.3375 10.9031 14.9836 15.0422 14.9836C19.1812 14.9836 22.5351 18.3399 22.5351 22.4766Z" fill="#CECED2"/>
<path d="M10.0195 20.6532C9.92107 20.6532 9.82263 20.6345 9.72888 20.5923C9.36794 20.4376 9.1945 20.0181 9.33513 19.6524C9.33747 19.6478 9.33981 19.6407 9.33981 19.636C9.34216 19.6243 9.34216 19.6267 9.34919 19.6173C9.67688 18.8381 10.185 18.1479 10.8317 17.6035C11.4783 17.0591 12.2451 16.6761 13.0687 16.486C13.1508 16.4673 13.2375 16.5071 13.275 16.5845C13.3125 16.6618 13.2914 16.7532 13.2234 16.8071C12.1289 17.6767 11.2547 18.8485 10.6968 20.1962C10.6968 20.1985 10.6945 20.2009 10.6945 20.2009C10.6945 20.2032 10.6945 20.2032 10.6922 20.2056C10.6148 20.386 10.4718 20.5243 10.289 20.597C10.2047 20.6368 10.1109 20.6532 10.0195 20.6532Z" fill="white"/>
<path d="M18.0609 14.4844H12.0656L4.57495 0H10.5679L18.0609 14.4844Z" fill="#006CA2"/>
<path d="M17.264 24.3468H14.7492C15.1453 24.1054 15.8367 23.625 16.6242 22.8375C17.3624 22.1015 17.6085 20.7585 16.7273 19.875C16.2164 19.3664 15.6351 19.1062 14.9999 19.1062C13.596 19.1062 12.4242 20.3484 12.3749 20.4C12.3445 20.4328 12.3374 20.4843 12.3632 20.5242L12.996 21.5578C13.0124 21.5835 13.0406 21.6023 13.071 21.6046C13.1015 21.6093 13.132 21.6 13.1554 21.5765C13.1624 21.5695 13.9265 20.8617 14.5968 20.8617C14.8664 20.8617 15.0773 20.9742 15.2414 21.2085C15.3749 21.3984 15.4148 21.6093 15.3632 21.8484C15.1078 22.9921 12.8507 24.2859 12.8273 24.3C12.8118 24.3092 12.7989 24.3222 12.7899 24.3378C12.7809 24.3534 12.776 24.371 12.7757 24.389V25.7414C12.7757 25.8 12.8226 25.8445 12.8789 25.8445H17.2664C17.3226 25.8445 17.3695 25.7976 17.3695 25.7414V24.4476C17.3683 24.4205 17.3566 24.3948 17.337 24.376C17.3173 24.3573 17.2912 24.3468 17.264 24.3468Z" fill="#77A2AD"/>
</g>
</svg>
