<svg width="24" height="25" viewBox="0 0 24 25" fill="none" xmlns="http://www.w3.org/2000/svg">
<path d="M20.8907 2.08325H3.65693C3.37447 2.08325 3.10358 2.20397 2.90385 2.41886C2.70412 2.63374 2.59192 2.92519 2.59192 3.22909V21.7708C2.59192 22.0746 2.70412 22.3661 2.90385 22.581C3.10358 22.7959 3.37447 22.9166 3.65693 22.9166H12.9322V14.8437H10.4149V11.7187H12.9322V9.37492C12.88 8.82467 12.9404 8.2688 13.1091 7.74631C13.2777 7.22382 13.5506 6.74736 13.9086 6.35035C14.2665 5.95333 14.7008 5.64538 15.1811 5.44808C15.6614 5.25079 16.1759 5.16893 16.6887 5.20825C17.4423 5.20326 18.1955 5.245 18.9446 5.33325V8.14575H17.4052C16.1853 8.14575 15.9529 8.77075 15.9529 9.677V11.6874H18.8575L18.4799 14.8124H15.9529V22.9166H20.8907C21.0305 22.9166 21.169 22.8869 21.2982 22.8294C21.4274 22.7718 21.5449 22.6874 21.6437 22.581C21.7426 22.4746 21.8211 22.3483 21.8746 22.2092C21.9281 22.0702 21.9557 21.9212 21.9557 21.7708V3.22909C21.9557 3.07861 21.9281 2.92961 21.8746 2.79059C21.8211 2.65158 21.7426 2.52526 21.6437 2.41886C21.5449 2.31246 21.4274 2.22806 21.2982 2.17047C21.169 2.11289 21.0305 2.08325 20.8907 2.08325Z" fill="#444444"/>
</svg>
