<svg width="24" height="25" viewBox="0 0 24 25" fill="none" xmlns="http://www.w3.org/2000/svg">
<path d="M12.9453 2.08325C14.0345 2.08638 14.5874 2.09263 15.0647 2.10721L15.2525 2.1145C15.4694 2.12284 15.6833 2.13325 15.9418 2.14575C16.972 2.19784 17.6749 2.37284 18.2916 2.63013C18.9306 2.89471 19.469 3.25304 20.0073 3.83117C20.4998 4.35172 20.8808 4.98166 21.1236 5.677C21.3627 6.34054 21.5254 7.09679 21.5738 8.20617C21.5854 8.48325 21.5951 8.71346 21.6028 8.94784L21.6087 9.14992C21.6232 9.66242 21.629 10.2572 21.6309 11.4291L21.6319 12.2062V13.5708C21.6342 14.3305 21.6268 15.0903 21.6096 15.8499L21.6038 16.052C21.5961 16.2864 21.5864 16.5166 21.5748 16.7937C21.5264 17.903 21.3618 18.6583 21.1236 19.3228C20.8808 20.0182 20.4998 20.6481 20.0073 21.1687C19.5234 21.6986 18.9379 22.1084 18.2916 22.3697C17.6749 22.627 16.972 22.802 15.9418 22.8541L15.2525 22.8853L15.0647 22.8916C14.5874 22.9062 14.0345 22.9135 12.9453 22.9155L12.223 22.9166H10.9557C10.2492 22.9193 9.54263 22.9113 8.83632 22.8926L8.64849 22.8864C8.41865 22.877 8.18886 22.8662 7.95914 22.8541C6.92899 22.802 6.22608 22.627 5.60838 22.3697C4.96243 22.1083 4.37727 21.6984 3.89372 21.1687C3.40086 20.6482 3.01955 20.0183 2.77643 19.3228C2.53729 18.6593 2.37463 17.903 2.32622 16.7937L2.29717 16.052L2.29233 15.8499C2.27449 15.0904 2.26642 14.3306 2.26813 13.5708V11.4291C2.26545 10.6693 2.27255 9.9095 2.28943 9.14992L2.29621 8.94784C2.30395 8.71346 2.31363 8.48325 2.32525 8.20617C2.37366 7.09679 2.53632 6.34159 2.77546 5.677C3.01915 4.98138 3.40113 4.35141 3.89468 3.83117C4.37796 3.30153 4.96278 2.89166 5.60838 2.63013C6.22608 2.37284 6.92802 2.19784 7.95914 2.14575C8.21668 2.13325 8.43161 2.12284 8.64849 2.1145L8.83632 2.10825C9.54231 2.08974 10.2485 2.08176 10.9547 2.08429L12.9453 2.08325ZM11.95 7.29159C10.6661 7.29159 9.4348 7.84032 8.52695 8.81707C7.6191 9.79382 7.10907 11.1186 7.10907 12.4999C7.10907 13.8813 7.6191 15.206 8.52695 16.1828C9.4348 17.1595 10.6661 17.7083 11.95 17.7083C13.2339 17.7083 14.4652 17.1595 15.3731 16.1828C16.2809 15.206 16.791 13.8813 16.791 12.4999C16.791 11.1186 16.2809 9.79382 15.3731 8.81707C14.4652 7.84032 13.2339 7.29159 11.95 7.29159ZM11.95 9.37492C12.3314 9.37485 12.7092 9.45561 13.0616 9.6126C13.414 9.76958 13.7342 9.99971 14.004 10.2898C14.2737 10.58 14.4877 10.9244 14.6338 11.3036C14.7798 11.6827 14.855 12.089 14.8551 12.4994C14.8551 12.9098 14.7801 13.3162 14.6341 13.6953C14.4882 14.0745 14.2743 14.419 14.0047 14.7093C13.735 14.9995 13.4148 15.2297 13.0625 15.3868C12.7101 15.544 12.3324 15.6249 11.951 15.6249C11.1806 15.6249 10.4419 15.2957 9.89714 14.7096C9.35243 14.1236 9.04641 13.3287 9.04641 12.4999C9.04641 11.6711 9.35243 10.8763 9.89714 10.2902C10.4419 9.70416 11.1806 9.37492 11.951 9.37492M17.034 5.72909C16.713 5.72909 16.4052 5.86627 16.1782 6.11046C15.9512 6.35464 15.8237 6.68583 15.8237 7.03117C15.8237 7.3765 15.9512 7.70769 16.1782 7.95188C16.4052 8.19607 16.713 8.33325 17.034 8.33325C17.3549 8.33325 17.6628 8.19607 17.8897 7.95188C18.1167 7.70769 18.2442 7.3765 18.2442 7.03117C18.2442 6.68583 18.1167 6.35464 17.8897 6.11046C17.6628 5.86627 17.3549 5.72909 17.034 5.72909Z" fill="#444444"/>
</svg>
