<svg width="40" height="40" viewBox="0 0 40 40" fill="none" xmlns="http://www.w3.org/2000/svg">
<rect width="40" height="40" fill="white"/>
<path d="M26.6667 5C27.942 4.99993 29.1692 5.48721 30.0971 6.36214C31.025 7.23707 31.5835 8.43351 31.6583 9.70667L31.6667 10V26.6667H32.9167C33.995 26.6667 34.8833 27.4867 34.99 28.5367L35 28.75V31.6667C35.0001 32.942 34.5128 34.1692 33.6379 35.0971C32.7629 36.025 31.5665 36.5835 30.2933 36.6583L30 36.6667H13.3333C12.058 36.6667 10.8308 36.1795 9.9029 35.3045C8.97499 34.4296 8.41649 33.2332 8.34167 31.96L8.33334 31.6667V15H5.41667C4.90091 15.0002 4.40339 14.8091 4.02039 14.4637C3.6374 14.1183 3.39615 13.6431 3.34334 13.13L3.33334 12.9167V10C3.33326 8.72465 3.82054 7.49748 4.69548 6.56957C5.57041 5.64166 6.76685 5.08315 8.04 5.00833L8.33334 5H26.6667ZM31.6667 30H16.6667V31.6667C16.6667 32.25 16.5667 32.8117 16.3833 33.3333H30C30.442 33.3333 30.866 33.1577 31.1785 32.8452C31.4911 32.5326 31.6667 32.1087 31.6667 31.6667V30ZM20 20H16.6667C16.2419 20.0005 15.8333 20.1631 15.5244 20.4547C15.2155 20.7464 15.0296 21.1449 15.0047 21.569C14.9798 21.9931 15.1178 22.4106 15.3904 22.7364C15.6631 23.0621 16.0498 23.2715 16.4717 23.3217L16.6667 23.3333H20C20.4248 23.3329 20.8334 23.1702 21.1423 22.8786C21.4512 22.587 21.6371 22.1884 21.662 21.7643C21.6869 21.3403 21.5489 20.9227 21.2762 20.5969C21.0036 20.2712 20.6168 20.0618 20.195 20.0117L20 20ZM23.3333 13.3333H16.6667C16.2246 13.3333 15.8007 13.5089 15.4882 13.8215C15.1756 14.1341 15 14.558 15 15C15 15.442 15.1756 15.866 15.4882 16.1785C15.8007 16.4911 16.2246 16.6667 16.6667 16.6667H23.3333C23.7754 16.6667 24.1993 16.4911 24.5118 16.1785C24.8244 15.866 25 15.442 25 15C25 14.558 24.8244 14.1341 24.5118 13.8215C24.1993 13.5089 23.7754 13.3333 23.3333 13.3333ZM8.33334 8.33333C7.89131 8.33333 7.46739 8.50893 7.15482 8.82149C6.84226 9.13405 6.66667 9.55797 6.66667 10V11.6667H8.33334V8.33333Z" fill="#5A827E"/>
</svg>
