<svg width="50" height="50" viewBox="0 0 50 50" fill="none" xmlns="http://www.w3.org/2000/svg">
<path d="M33.3334 6.25C34.9275 6.24991 36.4615 6.85901 37.6214 7.95267C38.7813 9.04634 39.4794 10.5419 39.5729 12.1333L39.5834 12.5V33.3333H41.1459C42.4938 33.3333 43.6042 34.3583 43.7375 35.6708L43.75 35.9375V39.5833C43.7501 41.1775 43.141 42.7115 42.0473 43.8714C40.9537 45.0313 39.4581 45.7294 37.8667 45.8229L37.5 45.8333H16.6667C15.0725 45.8334 13.5385 45.2243 12.3786 44.1307C11.2188 43.037 10.5206 41.5414 10.4271 39.95L10.4167 39.5833V18.75H6.77085C6.12615 18.7503 5.50425 18.5114 5.02551 18.0796C4.54676 17.6478 4.2452 17.0538 4.17919 16.4125L4.16669 16.1458V12.5C4.1666 10.9058 4.7757 9.37184 5.86936 8.21196C6.96302 7.05207 8.45858 6.35394 10.05 6.26042L10.4167 6.25H33.3334ZM39.5834 37.5H20.8334V39.5833C20.8334 40.3125 20.7084 41.0146 20.4792 41.6667H37.5C38.0526 41.6667 38.5825 41.4472 38.9732 41.0565C39.3639 40.6658 39.5834 40.1359 39.5834 39.5833V37.5ZM25 25H20.8334C20.3024 25.0006 19.7916 25.2039 19.4055 25.5684C19.0194 25.933 18.787 26.4312 18.7559 26.9612C18.7248 27.4913 18.8973 28.0133 19.2381 28.4205C19.5789 28.8277 20.0623 29.0894 20.5896 29.1521L20.8334 29.1667H25C25.531 29.1661 26.0418 28.9628 26.4279 28.5982C26.814 28.2337 27.0463 27.7355 27.0775 27.2054C27.1086 26.6753 26.9361 26.1534 26.5953 25.7462C26.2545 25.339 25.7711 25.0773 25.2438 25.0146L25 25ZM29.1667 16.6667H20.8334C20.2808 16.6667 19.7509 16.8862 19.3602 17.2769C18.9695 17.6676 18.75 18.1975 18.75 18.75C18.75 19.3025 18.9695 19.8324 19.3602 20.2231C19.7509 20.6138 20.2808 20.8333 20.8334 20.8333H29.1667C29.7192 20.8333 30.2491 20.6138 30.6398 20.2231C31.0305 19.8324 31.25 19.3025 31.25 18.75C31.25 18.1975 31.0305 17.6676 30.6398 17.2769C30.2491 16.8862 29.7192 16.6667 29.1667 16.6667ZM10.4167 10.4167C9.86415 10.4167 9.33425 10.6362 8.94355 11.0269C8.55285 11.4176 8.33335 11.9475 8.33335 12.5V14.5833H10.4167V10.4167Z" fill="#50CD89"/>
</svg>
