<svg width="40" height="40" viewBox="0 0 40 40" fill="none" xmlns="http://www.w3.org/2000/svg">
<path d="M4.99998 35C4.52776 35 4.1322 34.84 3.81331 34.52C3.49442 34.2 3.33442 33.8044 3.33331 33.3333V16.6667C3.33331 16.1944 3.49331 15.7989 3.81331 15.48C4.13331 15.1611 4.52887 15.0011 4.99998 15H10.8333C11.3055 15 11.7016 15.16 12.0216 15.48C12.3416 15.8 12.5011 16.1956 12.5 16.6667V33.3333C12.5 33.8056 12.34 34.2017 12.02 34.5217C11.7 34.8417 11.3044 35.0011 10.8333 35H4.99998ZM17.0833 35C16.6111 35 16.2155 34.84 15.8966 34.52C15.5778 34.2 15.4178 33.8044 15.4166 33.3333V6.66667C15.4166 6.19444 15.5766 5.79889 15.8966 5.48C16.2166 5.16111 16.6122 5.00111 17.0833 5H22.9166C23.3889 5 23.785 5.16 24.105 5.48C24.425 5.8 24.5844 6.19556 24.5833 6.66667V33.3333C24.5833 33.8056 24.4233 34.2017 24.1033 34.5217C23.7833 34.8417 23.3878 35.0011 22.9166 35H17.0833ZM29.1666 35C28.6944 35 28.2989 34.84 27.98 34.52C27.6611 34.2 27.5011 33.8044 27.5 33.3333V20C27.5 19.5278 27.66 19.1322 27.98 18.8133C28.3 18.4944 28.6955 18.3344 29.1666 18.3333H35C35.4722 18.3333 35.8683 18.4933 36.1883 18.8133C36.5083 19.1333 36.6678 19.5289 36.6666 20V33.3333C36.6666 33.8056 36.5066 34.2017 36.1866 34.5217C35.8666 34.8417 35.4711 35.0011 35 35H29.1666Z" fill="#5A827E"/>
</svg>
