<svg width="40" height="40" viewBox="0 0 40 40" fill="none" xmlns="http://www.w3.org/2000/svg">
<path d="M16.8583 36.3516C17.8683 37.185 18.9217 37.9466 20 38.69C21.0807 37.9565 22.1289 37.1763 23.1417 36.3516C24.83 34.9653 26.4189 33.4622 27.8967 31.8533C31.3033 28.1283 35 22.7283 35 16.6666C35 14.6968 34.612 12.7463 33.8582 10.9264C33.1044 9.10649 31.9995 7.4529 30.6066 6.06002C29.2137 4.66715 27.5601 3.56225 25.7403 2.80843C23.9204 2.05461 21.9698 1.66663 20 1.66663C18.0302 1.66663 16.0796 2.05461 14.2597 2.80843C12.4399 3.56225 10.7863 4.66715 9.3934 6.06002C8.00052 7.4529 6.89563 9.10649 6.14181 10.9264C5.38799 12.7463 5 14.6968 5 16.6666C5 22.7283 8.69667 28.1266 12.1033 31.8533C13.581 33.4628 15.1699 34.9648 16.8583 36.3516ZM20 22.0833C18.5634 22.0833 17.1857 21.5126 16.1698 20.4968C15.154 19.481 14.5833 18.1032 14.5833 16.6666C14.5833 15.23 15.154 13.8523 16.1698 12.8365C17.1857 11.8206 18.5634 11.25 20 11.25C21.4366 11.25 22.8143 11.8206 23.8302 12.8365C24.846 13.8523 25.4167 15.23 25.4167 16.6666C25.4167 18.1032 24.846 19.481 23.8302 20.4968C22.8143 21.5126 21.4366 22.0833 20 22.0833Z" fill="#F1416C"/>
</svg>
