<svg width="30" height="31" viewBox="0 0 30 31" fill="none" xmlns="http://www.w3.org/2000/svg">
<mask id="mask0_19_644" style="mask-type:luminance" maskUnits="userSpaceOnUse" x="0" y="0" width="30" height="31">
<path d="M0 0.199951H30V30.2H0V0.199951Z" fill="white"/>
</mask>
<g mask="url(#mask0_19_644)">
<path d="M11.454 14.689H17.4493L24.9446 0.199951H18.9493L11.454 14.689Z" fill="#006CA2"/>
<path d="M15.2016 7.44458L12.204 13.2407L12.954 14.6891H17.4493L18.1993 13.2407L15.2016 7.44458Z" fill="#2F2F2F"/>
<path d="M17.9298 18.1883H11.9344V14.6891H17.9298V18.1883ZM17.9298 13.1914H11.9344C11.5366 13.1914 11.1551 13.3494 10.8738 13.6307C10.5925 13.9121 10.4344 14.2936 10.4344 14.6914V18.1883C10.4344 18.5861 10.5925 18.9676 10.8738 19.2489C11.1551 19.5302 11.5366 19.6883 11.9344 19.6883H17.9298C18.7571 19.6883 19.4274 19.018 19.4274 18.1883V14.6891C19.4274 13.8617 18.7571 13.1914 17.9298 13.1914Z" fill="#FCC21B"/>
<path d="M22.4251 22.6835C22.4251 26.8226 19.0688 30.1789 14.9298 30.1789C10.7907 30.1789 7.43445 26.825 7.43445 22.6835C7.43445 18.5421 10.7907 15.1882 14.9298 15.1882C19.0712 15.1882 22.4251 18.5445 22.4251 22.6835Z" fill="#FCC21B"/>
<path d="M9.90708 20.86C9.80864 20.86 9.7102 20.8413 9.61645 20.7991C9.25551 20.6444 9.08208 20.2249 9.2227 19.8616C9.22504 19.8569 9.22739 19.8499 9.22739 19.8452C9.22973 19.8334 9.23208 19.8358 9.23676 19.8264C9.90005 18.2467 11.2899 17.0795 12.9586 16.6928C13.0407 16.6741 13.1274 16.7139 13.1649 16.7913C13.2024 16.8686 13.1813 16.9624 13.1133 17.0163C12.0188 17.8858 11.1446 19.0577 10.5868 20.4077C10.5868 20.41 10.5844 20.4124 10.5844 20.4124C10.5844 20.4124 10.5844 20.4147 10.5821 20.4147C10.5047 20.5952 10.3618 20.7358 10.179 20.8061C10.0922 20.8436 9.99848 20.86 9.90708 20.86Z" fill="white"/>
<path d="M17.9508 14.689H11.9532L4.46021 0.199951H10.4555L17.9508 14.689Z" fill="#006CA2"/>
<path d="M13.4766 21.1555L14.1727 20.9563V24.779H13.636C13.5774 24.779 13.5329 24.8258 13.5329 24.8821V26.1899C13.5329 26.2462 13.5774 26.293 13.636 26.293H16.4133C16.4696 26.293 16.5165 26.2462 16.5165 26.1899V24.8821C16.5165 24.8258 16.4696 24.779 16.4133 24.779H15.8766V19.1798C15.8766 19.1493 15.8625 19.1188 15.8368 19.1001C15.8247 19.0904 15.8107 19.0835 15.7957 19.0799C15.7808 19.0762 15.7652 19.0759 15.75 19.079L13.425 19.5782C13.3782 19.5899 13.343 19.6298 13.343 19.679V21.0571C13.343 21.0876 13.3571 21.1204 13.3829 21.1391C13.4133 21.1579 13.4461 21.1626 13.4766 21.1555Z" fill="#F79329"/>
</g>
</svg>
