<svg width="30" height="30" viewBox="0 0 30 30" fill="none" xmlns="http://www.w3.org/2000/svg">
<mask id="mask0_19_672" style="mask-type:luminance" maskUnits="userSpaceOnUse" x="0" y="0" width="30" height="30">
<path d="M0 0H30V30H0V0Z" fill="white"/>
</mask>
<g mask="url(#mask0_19_672)">
<path d="M11.7516 14.4961H17.7492L25.2469 0H19.2492L11.7516 14.4961Z" fill="#006CA2"/>
<path d="M15.4992 7.24683L12.5016 13.0476L13.2516 14.496H17.7492L18.4992 13.0476L15.4992 7.24683Z" fill="#2F2F2F"/>
<path d="M18.2274 17.9953H12.2297V14.4961H18.2274V17.9953ZM18.2274 12.9961H12.2297C11.8319 12.9961 11.4504 13.1541 11.1691 13.4354C10.8878 13.7167 10.7297 14.0983 10.7297 14.4961V17.9953C10.7297 18.825 11.4 19.4953 12.2297 19.4953H18.2274C19.0571 19.4953 19.7274 18.825 19.7274 17.9953V14.4961C19.7274 13.6664 19.0571 12.9961 18.2274 12.9961Z" fill="#B15B00"/>
<path d="M22.7274 22.493C22.7274 26.6344 19.3711 29.9907 15.2297 29.9907C11.0883 29.9907 7.73206 26.6344 7.73206 22.493C7.73206 18.3516 11.0883 14.9954 15.2297 14.9954C19.3711 14.9954 22.7274 18.354 22.7274 22.493Z" fill="#B15B00"/>
<path d="M10.2024 20.6695C10.1039 20.6695 10.0055 20.6507 9.91174 20.6085C9.5508 20.4539 9.37736 20.0343 9.51799 19.6687C9.52033 19.6617 9.52268 19.657 9.52502 19.6523C9.52736 19.6406 9.52736 19.6429 9.5344 19.6335C9.8625 18.8539 10.371 18.1634 11.018 17.6186C11.6651 17.0738 12.4322 16.6904 13.2563 16.5C13.3383 16.4812 13.425 16.521 13.4625 16.5984C13.5 16.6757 13.4789 16.7695 13.411 16.8234C12.3164 17.6929 11.4422 18.8671 10.8821 20.2148C10.8821 20.2171 10.8797 20.2195 10.8797 20.2195C10.8797 20.2218 10.8797 20.2218 10.8774 20.2242C10.8 20.4046 10.6571 20.5453 10.4742 20.6156C10.3875 20.6531 10.2938 20.6695 10.2024 20.6695Z" fill="white"/>
<path d="M18.2485 14.4961H12.2508L4.75317 0H10.7508L18.2485 14.4961Z" fill="#006CA2"/>
<path d="M15.1641 26.2148H15.2016C15.6258 26.2078 16.4297 26.1141 17.0438 25.5633C17.5547 25.1039 17.7914 24.4758 17.6953 23.8383C17.6039 23.2453 17.2312 22.7414 16.6617 22.4297C17.2078 22.0195 17.5359 21.5063 17.5922 20.9719C17.6484 20.4539 17.4445 19.9383 17.0062 19.4789C16.5656 19.0172 15.9703 18.7734 15.2883 18.7734C14.2359 18.7734 13.268 19.3289 12.975 19.732C12.9492 19.7648 12.9492 19.8117 12.9727 19.8492L13.6266 20.7938C13.643 20.8172 13.6664 20.8336 13.6945 20.8359C13.7203 20.8406 13.7508 20.8336 13.7719 20.8148C13.7789 20.8102 14.4891 20.2266 15.0961 20.2266C15.3727 20.2266 15.5766 20.3484 15.7219 20.5969C15.8414 20.8055 15.8648 20.9953 15.7922 21.1781C15.593 21.6703 14.7492 21.9211 14.7422 21.9234C14.7 21.9352 14.6695 21.975 14.6695 22.0195V22.8516C14.6695 22.8984 14.7 22.9383 14.7469 22.9477C14.7562 22.95 15.5578 23.1492 15.7406 23.6086C15.8133 23.7891 15.7758 23.993 15.6328 24.2156C15.4805 24.45 15.2508 24.5695 14.9484 24.5695C14.3625 24.5695 13.6453 24.1242 13.3313 23.8453C13.3208 23.836 13.3085 23.8289 13.2952 23.8245C13.2819 23.82 13.2679 23.8183 13.2539 23.8195C13.2234 23.8219 13.2 23.8383 13.1836 23.8617L12.5297 24.8062C12.5039 24.8437 12.5063 24.893 12.5367 24.9281C12.5766 24.982 13.6453 26.2148 15.1641 26.2148Z" fill="#FFA176"/>
</g>
</svg>
