<svg width="19" height="24" viewBox="0 0 19 24" fill="none" xmlns="http://www.w3.org/2000/svg">
<g clip-path="url(#clip0_13_484)">
<path d="M3.0621 1.5C1.59737 1.5 0.406494 2.84531 0.406494 4.5V19.5C0.406494 21.1547 1.59737 22.5 3.0621 22.5H16.3401C17.8048 22.5 18.9957 21.1547 18.9957 19.5V4.5C18.9957 2.84531 17.8048 1.5 16.3401 1.5H3.0621ZM15.3899 5.4375L11.0828 10.9969L16.1492 18.5625H12.1824L9.07869 13.9734L5.52268 18.5625H3.55172L8.15753 12.6141L3.29861 5.4375H7.365L10.1741 9.63281L13.4189 5.4375H15.3899ZM13.8214 17.2313L6.77164 6.69844H5.59736L12.726 17.2313H13.8173H13.8214Z" fill="#444444"/>
</g>
<defs>
<clipPath id="clip0_13_484">
<rect width="18.5892" height="24" fill="white" transform="translate(0.406494)"/>
</clipPath>
</defs>
</svg>
