<svg width="30" height="31" viewBox="0 0 30 31" fill="none" xmlns="http://www.w3.org/2000/svg">
<path d="M12.6572 19.3749L18.888 15.4999L12.6572 11.6249V19.3749ZM26.5356 9.26117C26.6916 9.86825 26.7997 10.682 26.8717 11.7153C26.9557 12.7487 26.9918 13.6399 26.9918 14.4149L27.0638 15.4999C27.0638 18.3287 26.8717 20.4083 26.5356 21.7387C26.2354 22.9012 25.5391 23.6503 24.4586 23.9733C23.8943 24.1412 22.8619 24.2574 21.2771 24.3349C19.7164 24.4253 18.2878 24.4641 16.9671 24.4641L15.0583 24.5416C10.0279 24.5416 6.8945 24.3349 5.65793 23.9733C4.57744 23.6503 3.88112 22.9012 3.58098 21.7387C3.42491 21.1316 3.31686 20.3178 3.24482 19.2845C3.16078 18.2512 3.12477 17.3599 3.12477 16.5849L3.05273 15.4999C3.05273 12.6712 3.24482 10.5916 3.58098 9.26117C3.88112 8.09867 4.57744 7.3495 5.65793 7.02659C6.22219 6.85867 7.25467 6.74242 8.8394 6.66492C10.4001 6.5745 11.8288 6.53575 13.1494 6.53575L15.0583 6.45825C20.0886 6.45825 23.222 6.66492 24.4586 7.02659C25.5391 7.3495 26.2354 8.09867 26.5356 9.26117Z" fill="#444444"/>
</svg>
